<?xml version="1.0" standalone="no"?>
<!DOCTYPE svg PUBLIC "-//W3C//DTD SVG 20010904//EN"
 "http://www.w3.org/TR/2001/REC-SVG-20010904/DTD/svg10.dtd">
<svg version="1.0" xmlns="http://www.w3.org/2000/svg"
 width="474.000000pt" height="474.000000pt" viewBox="0 0 474.000000 474.000000"
 preserveAspectRatio="xMidYMid meet">

<g transform="translate(0.000000,474.000000) scale(0.100000,-0.100000)"
fill="#000000" stroke="none">
<path d="M2310 4528 c-25 -50 -66 -126 -92 -169 -25 -42 -49 -86 -53 -98 -6
-20 -103 -221 -379 -785 -80 -164 -146 -309 -146 -321 0 -73 78 -197 187 -299
92 -86 180 -150 463 -341 311 -209 402 -278 528 -399 346 -334 456 -707 331
-1128 -34 -116 -87 -238 -142 -332 -40 -66 -40 -69 -21 -83 32 -24 846 -434
851 -429 4 4 -33 228 -208 1261 l-59 350 581 581 c557 557 581 582 553 588
-16 3 -137 21 -269 40 -132 20 -332 49 -445 66 -113 17 -216 30 -230 28 -14
-1 -30 1 -37 5 -7 4 -148 28 -314 53 -167 24 -304 45 -305 47 -1 1 -144 286
-319 632 -341 677 -417 825 -425 825 -3 0 -26 -41 -50 -92z"/>
<path d="M940 3045 c-127 -22 -907 -145 -919 -145 -6 0 -11 -3 -11 -8 0 -4
262 -265 583 -579 l583 -571 -48 -299 c-92 -566 -208 -1303 -208 -1319 0 -6
235 115 921 475 l537 282 35 -17 c47 -22 53 -17 111 99 65 130 90 235 83 357
-9 162 -60 269 -198 415 -100 105 -190 175 -413 323 -255 168 -343 231 -456
326 -244 206 -397 413 -447 607 -20 79 -15 78 -153 54z"/>
</g>
</svg>
